<svg width="32" height="32" viewBox="0 0 32 32" fill="none" xmlns="http://www.w3.org/2000/svg">
<mask id="mask0_568_5" style="mask-type:luminance" maskUnits="userSpaceOnUse" x="0" y="0" width="32" height="32">
<path d="M31.4091 13.0909H16.5V19.2727H25.0818C24.2818 23.2 20.9364 25.4546 16.5 25.4546C11.2636 25.4546 7.04546 21.2364 7.04546 16C7.04546 10.7636 11.2636 6.54546 16.5 6.54546C18.7546 6.54546 20.7909 7.34546 22.3909 8.65455L27.0455 4C24.2091 1.52727 20.5727 0 16.5 0C7.62728 0 0.5 7.12728 0.5 16C0.5 24.8727 7.62728 32 16.5 32C24.5 32 31.7727 26.1818 31.7727 16C31.7727 15.0546 31.6273 14.0364 31.4091 13.0909Z" fill="white"/>
</mask>
<g mask="url(#mask0_568_5)">
<path d="M-0.95459 25.4545V6.54541L11.4091 16L-0.95459 25.4545Z" fill="#FBBC05"/>
</g>
<mask id="mask1_568_5" style="mask-type:luminance" maskUnits="userSpaceOnUse" x="0" y="0" width="32" height="32">
<path d="M31.4091 13.0909H16.5V19.2727H25.0818C24.2818 23.2 20.9364 25.4546 16.5 25.4546C11.2636 25.4546 7.04546 21.2364 7.04546 16C7.04546 10.7636 11.2636 6.54546 16.5 6.54546C18.7546 6.54546 20.7909 7.34546 22.3909 8.65455L27.0455 4C24.2091 1.52727 20.5727 0 16.5 0C7.62728 0 0.5 7.12728 0.5 16C0.5 24.8727 7.62728 32 16.5 32C24.5 32 31.7727 26.1818 31.7727 16C31.7727 15.0546 31.6273 14.0364 31.4091 13.0909Z" fill="white"/>
</mask>
<g mask="url(#mask1_568_5)">
<path d="M-0.95459 6.54541L11.4091 16L16.5 11.5636L33.9545 8.72723V-1.45459H-0.95459V6.54541Z" fill="#EA4335"/>
</g>
<mask id="mask2_568_5" style="mask-type:luminance" maskUnits="userSpaceOnUse" x="0" y="0" width="32" height="32">
<path d="M31.4091 13.0909H16.5V19.2727H25.0818C24.2818 23.2 20.9364 25.4546 16.5 25.4546C11.2636 25.4546 7.04546 21.2364 7.04546 16C7.04546 10.7636 11.2636 6.54546 16.5 6.54546C18.7546 6.54546 20.7909 7.34546 22.3909 8.65455L27.0455 4C24.2091 1.52727 20.5727 0 16.5 0C7.62728 0 0.5 7.12728 0.5 16C0.5 24.8727 7.62728 32 16.5 32C24.5 32 31.7727 26.1818 31.7727 16C31.7727 15.0546 31.6273 14.0364 31.4091 13.0909Z" fill="white"/>
</mask>
<g mask="url(#mask2_568_5)">
<path d="M-0.95459 25.4545L20.8636 8.72723L26.6091 9.4545L33.9545 -1.45459V33.4545H-0.95459V25.4545Z" fill="#34A853"/>
</g>
<mask id="mask3_568_5" style="mask-type:luminance" maskUnits="userSpaceOnUse" x="0" y="0" width="32" height="32">
<path d="M31.4091 13.0909H16.5V19.2727H25.0818C24.2818 23.2 20.9364 25.4546 16.5 25.4546C11.2636 25.4546 7.04546 21.2364 7.04546 16C7.04546 10.7636 11.2636 6.54546 16.5 6.54546C18.7546 6.54546 20.7909 7.34546 22.3909 8.65455L27.0455 4C24.2091 1.52727 20.5727 0 16.5 0C7.62728 0 0.5 7.12728 0.5 16C0.5 24.8727 7.62728 32 16.5 32C24.5 32 31.7727 26.1818 31.7727 16C31.7727 15.0546 31.6273 14.0364 31.4091 13.0909Z" fill="white"/>
</mask>
<g mask="url(#mask3_568_5)">
<path d="M33.9546 33.4545L11.4091 16L8.5 13.8181L33.9546 6.54541V33.4545Z" fill="#4285F4"/>
</g>
</svg>
