<svg width="34" height="28" viewBox="0 0 34 28" fill="none" xmlns="http://www.w3.org/2000/svg">
<path d="M33.384 3.68217C32.1783 4.21686 30.8826 4.57823 29.5227 4.74076C30.9108 3.9087 31.9767 2.59122 32.4787 1.02144C31.1798 1.79177 29.741 2.35127 28.2097 2.65283C26.9833 1.34626 25.2361 0.529785 23.3026 0.529785C19.5897 0.529785 16.5796 3.53978 16.5796 7.25238C16.5796 7.77928 16.6392 8.29239 16.7538 8.78441C11.1665 8.50406 6.21286 5.82763 2.89711 1.76037C2.31843 2.75327 1.9869 3.9081 1.9869 5.14013C1.9869 7.47244 3.17386 9.53017 4.97772 10.7357C3.87563 10.7008 2.83909 10.3984 1.93261 9.8949C1.93213 9.92294 1.93213 9.95111 1.93213 9.9794C1.93213 13.2367 4.24946 15.9538 7.3249 16.5713C6.76073 16.725 6.16683 16.8071 5.55364 16.8071C5.12047 16.8071 4.69929 16.765 4.2889 16.6865C5.14432 19.3575 7.62706 21.3011 10.5689 21.3554C8.26807 23.1584 5.3693 24.2332 2.21967 24.2332C1.67707 24.2332 1.1419 24.2014 0.615967 24.1393C3.59108 26.0467 7.12486 27.1596 10.9214 27.1596C23.2869 27.1596 30.0488 16.9157 30.0488 8.03194C30.0488 7.74045 30.0423 7.45051 30.0294 7.16225C31.3428 6.21441 32.4826 5.03034 33.384 3.68217Z" fill="#55ACEE"/>
</svg>
